HIERARCHY
ROOT joint_0
{
	OFFSET 0.000000 0.000000 0.000000
	CHANNELS 6 Xposition Yposition Zposition Zrotation Yrotation Xrotation 
	JOINT joint_1
	{
		OFFSET 13.542969 -4.074463 123.986084
		CHANNELS 3 Zrotation Yrotation Xrotation
		JOINT joint_2
		{
			OFFSET -0.108154 -3.018066 113.860962
			CHANNELS 3 Zrotation Yrotation Xrotation
			JOINT joint_3
			{
				OFFSET -1.139648 -3.876465 113.702026
				CHANNELS 3 Zrotation Yrotation Xrotation
				JOINT joint_4
				{
					OFFSET 13.593506 -8.582153 160.876953
					CHANNELS 3 Zrotation Yrotation Xrotation
					JOINT joint_5
					{
						OFFSET 26.480957 -11.565674 94.427979
						CHANNELS 3 Zrotation Yrotation Xrotation
						End Site
						{
							OFFSET 0.000000 0.000000 0.000000
						}
					}
				}
				JOINT joint_6
				{
					OFFSET 3.003662 -39.658691 88.713989
					CHANNELS 3 Zrotation Yrotation Xrotation
					JOINT joint_7
					{
						OFFSET -25.253906 -162.506348 -28.477051
						CHANNELS 3 Zrotation Yrotation Xrotation
						JOINT joint_8
						{
							OFFSET 23.083252 -8.502686 -295.281982
							CHANNELS 3 Zrotation Yrotation Xrotation
							JOINT joint_9
							{
								OFFSET 20.205566 -32.167908 -263.458008
								CHANNELS 3 Zrotation Yrotation Xrotation
								End Site
								{
									OFFSET 0.000000 0.000000 0.000000
								}
							}
						}
					}
				}
				JOINT joint_10
				{
					OFFSET 12.313232 30.012939 91.642944
					CHANNELS 3 Zrotation Yrotation Xrotation
					JOINT joint_11
					{
						OFFSET 31.960205 162.667969 -19.398926
						CHANNELS 3 Zrotation Yrotation Xrotation
						JOINT joint_12
						{
							OFFSET 51.325195 40.249023 -289.038086
							CHANNELS 3 Zrotation Yrotation Xrotation
							JOINT joint_13
							{
								OFFSET 70.170898 60.433594 -249.556030
								CHANNELS 3 Zrotation Yrotation Xrotation
								End Site
								{
									OFFSET 0.000000 0.000000 0.000000
								}
							}
						}
					}
				}
			}
		}
	}
	JOINT joint_14
	{
		OFFSET -15.093262 -91.803833 -113.326904
		CHANNELS 3 Zrotation Yrotation Xrotation
		JOINT joint_15
		{
			OFFSET 2.288818 -12.306763 -494.206055
			CHANNELS 3 Zrotation Yrotation Xrotation
			JOINT joint_16
			{
				OFFSET -54.691650 0.383423 -424.447006
				CHANNELS 3 Zrotation Yrotation Xrotation
				JOINT joint_17
				{
					OFFSET 202.154297 -21.791382 -80.181999
					CHANNELS 3 Zrotation Yrotation Xrotation
					End Site
					{
						OFFSET 0.000000 0.000000 0.000000
					}
				}
			}
		}
	}
	JOINT joint_18
	{
		OFFSET 10.704102 91.957275 -113.713013
		CHANNELS 3 Zrotation Yrotation Xrotation
		JOINT joint_19
		{
			OFFSET 0.427490 1.374878 -494.359924
			CHANNELS 3 Zrotation Yrotation Xrotation
			JOINT joint_20
			{
				OFFSET -53.071777 2.769531 -424.643028
				CHANNELS 3 Zrotation Yrotation Xrotation
				JOINT joint_21
				{
					OFFSET 200.264648 -28.253052 -82.862999
					CHANNELS 3 Zrotation Yrotation Xrotation
					End Site
					{
						OFFSET 0.000000 0.000000 0.000000
					}
				}
			}
		}
	}
}
MOTION
Frames: 7
Frame Time: 0.016667
-2698.191162 1271.264160 1119.598999 10.056892 9.873314 -1.574351 5.701790 -0.000570 0.226061 4.638376 -0.320972 0.469972 4.639585 -0.052969 -0.030706 -0.302497 -1.642996 0.566786 0.000000 0.000000 0.000000 5.377947 5.243435 -1.445954 -3.495878 8.673904 -15.373412 -0.009512 -0.880152 8.454229 0.000000 0.000000 0.000000 4.916486 4.866866 1.356301 1.739644 3.252018 10.503559 4.312790 5.896819 6.316346 0.000000 0.000000 0.000000 0.092552 2.633200 -1.056219 0.365502 1.608866 0.956298 0.454705 -3.442193 -0.213163 0.000000 0.000000 0.000000 -0.070199 -43.794964 7.079799 -6.606554 64.296812 -6.189442 -3.967563 12.956041 0.379708 0.000000 0.000000 0.000000 
-2683.775635 1277.903809 1116.021973 9.378390 9.508565 -1.791996 5.339896 0.886016 0.552537 4.598458 -0.457837 0.343210 4.668322 0.121348 0.025655 -0.288455 -1.625261 0.549512 0.000000 0.000000 0.000000 5.271214 4.643044 -1.020611 -3.676549 8.376460 -16.827048 -0.005672 -0.481786 7.917703 0.000000 0.000000 0.000000 4.892896 5.080320 1.017171 2.077188 3.294276 10.420516 4.970606 6.758578 7.552517 0.000000 0.000000 0.000000 -0.047547 4.256919 -1.140790 0.734562 0.812043 0.713441 0.814687 -3.688690 -0.111059 0.000000 0.000000 0.000000 0.550586 -45.698884 6.386533 -6.374147 64.773609 -5.407751 -3.824718 11.314624 0.187350 0.000000 0.000000 0.000000 
-2668.500244 1285.184448 1112.866943 8.791060 9.196375 -1.871275 4.878691 1.748389 0.768818 4.564754 -0.565850 0.228164 4.696430 0.281462 0.078857 -0.257177 -1.625328 0.469138 0.000000 0.000000 0.000000 5.025556 4.001213 -0.516618 -3.735694 7.976183 -18.014954 -0.018674 0.157395 6.630538 0.000000 0.000000 0.000000 4.856440 5.324337 0.830861 2.281185 3.515105 9.986337 5.465748 7.370449 8.493622 0.000000 0.000000 0.000000 -0.201045 5.762701 -1.397599 1.089159 0.242053 0.429239 1.149642 -3.891182 -0.013904 0.000000 0.000000 0.000000 0.806675 -47.131452 5.737908 -6.137937 63.487716 -4.756178 -4.448720 9.585463 -0.268897 0.000000 0.000000 0.000000 
-2652.461426 1292.895020 1109.822998 8.102325 8.968959 -1.952924 4.443155 2.454933 0.871387 4.535118 -0.645675 0.149993 4.711459 0.403298 0.111916 -0.215253 -1.584531 0.355880 0.000000 0.000000 0.000000 4.711475 3.457316 -0.199169 -3.645115 7.518803 -18.691690 -0.054234 0.746812 4.776990 0.000000 0.000000 0.000000 4.851306 5.537249 0.773644 2.370127 3.781909 9.405015 5.758148 7.816070 8.966641 0.000000 0.000000 0.000000 -0.222603 6.988900 -1.774927 1.465489 0.085168 0.250819 1.504055 -4.095695 0.089065 0.000000 0.000000 0.000000 0.747694 -48.001236 5.324329 -5.953592 60.807017 -4.245502 -5.606049 7.802920 -0.914188 0.000000 0.000000 0.000000 
-2635.858398 1301.053833 1106.983032 7.242411 8.915709 -2.064350 4.118051 2.923373 0.844349 4.498866 -0.700228 0.126299 4.691283 0.474031 0.106106 -0.155415 -1.501081 0.181304 0.000000 0.000000 0.000000 4.322232 3.097393 -0.215685 -3.358132 7.006822 -18.531167 -0.160160 1.158574 1.928538 0.000000 0.000000 0.000000 4.902251 5.680475 0.876311 2.327298 4.067361 8.676199 5.804727 8.112924 8.860575 0.000000 0.000000 0.000000 0.003151 7.767794 -2.287036 1.885283 0.437331 0.235814 1.906218 -4.300924 0.208081 0.000000 0.000000 0.000000 0.209843 -48.299453 5.233197 -6.088965 56.350386 -3.888984 -7.692502 5.788555 -1.919980 0.000000 0.000000 0.000000 
-2618.491211 1309.644653 1104.254028 6.214232 8.916138 -2.217068 3.909279 3.282440 0.762975 4.458017 -0.759778 0.128449 4.644933 0.515988 0.075453 -0.082314 -1.382080 -0.040591 0.000000 0.000000 0.000000 3.856407 2.800977 -0.366778 -3.106215 6.460777 -17.949602 -0.436870 1.364056 -1.464428 0.000000 0.000000 0.000000 4.984456 5.792157 1.094503 2.158543 4.384305 7.821761 5.624821 8.184593 8.305836 0.000000 0.000000 0.000000 0.423141 8.284182 -2.870881 2.336349 1.207256 0.313076 2.345299 -4.487757 0.341303 0.000000 0.000000 0.000000 -0.700564 -47.779070 5.474509 -6.513541 49.999547 -3.623859 -9.773910 3.880010 -2.926193 0.000000 0.000000 0.000000 
-2599.861328 1318.400024 1101.034058 5.078278 8.749683 -2.464737 3.773982 3.584561 0.708578 4.387633 -0.798873 0.130080 4.556894 0.563204 0.058390 -0.022277 -1.175949 -0.201977 0.000000 0.000000 0.000000 3.396747 2.461883 -0.487541 -3.005433 5.941629 -17.685079 -0.724141 1.372906 -3.913527 0.000000 0.000000 0.000000 5.060647 5.935933 1.296802 1.917005 4.674944 7.087372 5.264160 7.970893 7.504993 0.000000 0.000000 0.000000 0.889315 8.857215 -3.391377 2.753420 2.298344 0.441661 2.765053 -4.682841 0.464078 0.000000 0.000000 0.000000 -1.531444 -46.250273 5.932021 -6.685319 42.922655 -3.293240 -10.288158 2.741246 -3.288130 0.000000 0.000000 0.000000 
